<svg width="25" height="24" viewBox="0 0 25 24" fill="none" xmlns="http://www.w3.org/2000/svg">
<g clip-path="url(#clip0_1_488)">
<path d="M18.875 0H6.125C3.0184 0 0.5 2.5184 0.5 5.625V18.375C0.5 21.4816 3.0184 24 6.125 24H18.875C21.9816 24 24.5 21.4816 24.5 18.375V5.625C24.5 2.5184 21.9816 0 18.875 0Z" fill="#F4F2ED"/>
<path d="M4.40338 19.035H7.38631V11.7907L3.125 8.59473V17.7566C3.125 18.464 3.69819 19.035 4.40338 19.035Z" fill="#4285F4"/>
<path d="M17.6135 19.0349H20.5966C21.3039 19.0349 21.8749 18.4617 21.8749 17.7565V8.59448L17.6135 11.7905" fill="#34A853"/>
<path d="M17.6135 6.25085V11.7906L21.8749 8.5947V6.88995C21.8749 5.30904 20.0702 4.40773 18.8068 5.35592" fill="#FBBC04"/>
<path d="M7.38647 11.7906V6.25092L12.5001 10.086L17.6137 6.25073V11.7905L12.5001 15.6258" fill="#EA4335"/>
<path d="M3.125 6.88995V8.59451L7.38631 11.7905V6.25085L6.19316 5.35592C4.92753 4.40773 3.125 5.30904 3.125 6.88995Z" fill="#C5221F"/>
</g>
<defs>
<clipPath id="clip0_1_488">
<rect width="24" height="24" fill="white" transform="translate(0.5)"/>
</clipPath>
</defs>
</svg>
