<svg width="135" height="18" viewBox="0 0 135 18" fill="none" xmlns="http://www.w3.org/2000/svg">
<path d="M9.15327 3.34001L10.3266 5.68668C10.4866 6.01334 10.9133 6.32668 11.2733 6.38668L13.3999 6.74001C14.7599 6.96668 15.0799 7.95334 14.0999 8.92668L12.4466 10.58C12.1666 10.86 12.0133 11.4 12.0999 11.7867L12.5733 13.8333C12.9466 15.4533 12.0866 16.08 10.6533 15.2333L8.65994 14.0533C8.29994 13.84 7.70661 13.84 7.33994 14.0533L5.34661 15.2333C3.91994 16.08 3.05327 15.4467 3.42661 13.8333L3.89994 11.7867C3.98661 11.4 3.83327 10.86 3.55327 10.58L1.89994 8.92668C0.926606 7.95334 1.23994 6.96668 2.59994 6.74001L4.72661 6.38668C5.07994 6.32668 5.50661 6.01334 5.66661 5.68668L6.83994 3.34001C7.47994 2.06668 8.51994 2.06668 9.15327 3.34001Z" fill="#FFCC00"/>
<path d="M29.1533 3.34001L30.3266 5.68668C30.4866 6.01334 30.9133 6.32668 31.2733 6.38668L33.3999 6.74001C34.7599 6.96668 35.0799 7.95334 34.0999 8.92668L32.4466 10.58C32.1666 10.86 32.0133 11.4 32.0999 11.7867L32.5733 13.8333C32.9466 15.4533 32.0866 16.08 30.6533 15.2333L28.6599 14.0533C28.2999 13.84 27.7066 13.84 27.3399 14.0533L25.3466 15.2333C23.9199 16.08 23.0533 15.4467 23.4266 13.8333L23.8999 11.7867C23.9866 11.4 23.8333 10.86 23.5533 10.58L21.8999 8.92668C20.9266 7.95334 21.2399 6.96668 22.5999 6.74001L24.7266 6.38668C25.0799 6.32668 25.5066 6.01334 25.6666 5.68668L26.8399 3.34001C27.4799 2.06668 28.5199 2.06668 29.1533 3.34001Z" fill="#FFCC00"/>
<path d="M49.1533 3.34001L50.3266 5.68668C50.4866 6.01334 50.9133 6.32668 51.2733 6.38668L53.3999 6.74001C54.7599 6.96668 55.0799 7.95334 54.0999 8.92668L52.4466 10.58C52.1666 10.86 52.0133 11.4 52.0999 11.7867L52.5733 13.8333C52.9466 15.4533 52.0866 16.08 50.6533 15.2333L48.6599 14.0533C48.2999 13.84 47.7066 13.84 47.3399 14.0533L45.3466 15.2333C43.9199 16.08 43.0533 15.4467 43.4266 13.8333L43.8999 11.7867C43.9866 11.4 43.8333 10.86 43.5533 10.58L41.8999 8.92668C40.9266 7.95334 41.2399 6.96668 42.5999 6.74001L44.7266 6.38668C45.0799 6.32668 45.5066 6.01334 45.6666 5.68668L46.8399 3.34001C47.4799 2.06668 48.5199 2.06668 49.1533 3.34001Z" fill="#FFCC00"/>
<path d="M69.1533 3.34001L70.3266 5.68668C70.4866 6.01334 70.9133 6.32668 71.2733 6.38668L73.3999 6.74001C74.7599 6.96668 75.0799 7.95334 74.0999 8.92668L72.4466 10.58C72.1666 10.86 72.0133 11.4 72.0999 11.7867L72.5733 13.8333C72.9466 15.4533 72.0866 16.08 70.6533 15.2333L68.6599 14.0533C68.2999 13.84 67.7066 13.84 67.3399 14.0533L65.3466 15.2333C63.9199 16.08 63.0533 15.4467 63.4266 13.8333L63.8999 11.7867C63.9866 11.4 63.8333 10.86 63.5533 10.58L61.8999 8.92668C60.9266 7.95334 61.2399 6.96668 62.5999 6.74001L64.7266 6.38668C65.0799 6.32668 65.5066 6.01334 65.6666 5.68668L66.8399 3.34001C67.4799 2.06668 68.5199 2.06668 69.1533 3.34001Z" fill="#FFCC00"/>
<path d="M89.1533 3.34001L90.3266 5.68668C90.4866 6.01334 90.9133 6.32668 91.2733 6.38668L93.3999 6.74001C94.7599 6.96668 95.0799 7.95334 94.0999 8.92668L92.4466 10.58C92.1666 10.86 92.0133 11.4 92.0999 11.7867L92.5733 13.8333C92.9466 15.4533 92.0866 16.08 90.6533 15.2333L88.6599 14.0533C88.2999 13.84 87.7066 13.84 87.3399 14.0533L85.3466 15.2333C83.9199 16.08 83.0533 15.4467 83.4266 13.8333L83.8999 11.7867C83.9866 11.4 83.8333 10.86 83.5533 10.58L81.8999 8.92668C80.9266 7.95334 81.2399 6.96668 82.5999 6.74001L84.7266 6.38668C85.0799 6.32668 85.5066 6.01334 85.6666 5.68668L86.8399 3.34001C87.4799 2.06668 88.5199 2.06668 89.1533 3.34001Z" fill="#D9D9D9"/>
<path d="M106.756 9.63086V9.53125C106.756 8.69531 106.846 7.9375 107.025 7.25781C107.209 6.57422 107.447 5.97656 107.74 5.46484C108.033 4.94922 108.346 4.52344 108.678 4.1875C109.014 3.84766 109.336 3.60352 109.645 3.45508L109.926 4.26367C109.699 4.43164 109.473 4.66406 109.246 4.96094C109.023 5.25781 108.818 5.62305 108.631 6.05664C108.447 6.48633 108.299 6.99023 108.186 7.56836C108.076 8.14258 108.021 8.79297 108.021 9.51953V9.64258C108.021 10.3691 108.076 11.0215 108.186 11.5996C108.299 12.1738 108.447 12.6777 108.631 13.1113C108.818 13.5449 109.023 13.9121 109.246 14.2129C109.473 14.5176 109.699 14.7598 109.926 14.9395L109.645 15.7129C109.336 15.5605 109.014 15.3145 108.678 14.9746C108.346 14.6387 108.033 14.2129 107.74 13.6973C107.447 13.1855 107.209 12.5898 107.025 11.9102C106.846 11.2266 106.756 10.4668 106.756 9.63086ZM114.66 4.43945V13H113.248V6.11523L111.156 6.82422V5.6582L114.49 4.43945H114.66ZM123.186 8.01953V9.41406C123.186 10.082 123.119 10.6523 122.986 11.125C122.857 11.5938 122.67 11.9746 122.424 12.2676C122.178 12.5605 121.883 12.7754 121.539 12.9121C121.199 13.0488 120.818 13.1172 120.396 13.1172C120.061 13.1172 119.748 13.0742 119.459 12.9883C119.174 12.9023 118.916 12.7676 118.686 12.584C118.455 12.4004 118.258 12.1641 118.094 11.875C117.934 11.582 117.809 11.2324 117.719 10.8262C117.633 10.4199 117.59 9.94922 117.59 9.41406V8.01953C117.59 7.34766 117.656 6.78125 117.789 6.32031C117.922 5.85547 118.111 5.47852 118.357 5.18945C118.604 4.89648 118.896 4.68359 119.236 4.55078C119.58 4.41797 119.963 4.35156 120.385 4.35156C120.725 4.35156 121.037 4.39453 121.322 4.48047C121.611 4.5625 121.869 4.69336 122.096 4.87305C122.326 5.05273 122.521 5.28711 122.682 5.57617C122.846 5.86133 122.971 6.20703 123.057 6.61328C123.143 7.01562 123.186 7.48438 123.186 8.01953ZM121.773 9.61328V7.80859C121.773 7.46875 121.754 7.16992 121.715 6.91211C121.676 6.65039 121.617 6.42969 121.539 6.25C121.465 6.06641 121.371 5.91797 121.258 5.80469C121.145 5.6875 121.016 5.60352 120.871 5.55273C120.727 5.49805 120.564 5.4707 120.385 5.4707C120.166 5.4707 119.971 5.51367 119.799 5.59961C119.627 5.68164 119.482 5.81445 119.365 5.99805C119.248 6.18164 119.158 6.42383 119.096 6.72461C119.037 7.02148 119.008 7.38281 119.008 7.80859V9.61328C119.008 9.95703 119.027 10.2598 119.066 10.5215C119.105 10.7832 119.164 11.0078 119.242 11.1953C119.32 11.3789 119.414 11.5312 119.523 11.6523C119.637 11.7695 119.766 11.8555 119.91 11.9102C120.059 11.9648 120.221 11.9922 120.396 11.9922C120.619 11.9922 120.816 11.9492 120.988 11.8633C121.16 11.7773 121.305 11.6406 121.422 11.4531C121.539 11.2617 121.627 11.0137 121.686 10.709C121.744 10.4043 121.773 10.0391 121.773 9.61328ZM130.006 8.01953V9.41406C130.006 10.082 129.939 10.6523 129.807 11.125C129.678 11.5938 129.49 11.9746 129.244 12.2676C128.998 12.5605 128.703 12.7754 128.359 12.9121C128.02 13.0488 127.639 13.1172 127.217 13.1172C126.881 13.1172 126.568 13.0742 126.279 12.9883C125.994 12.9023 125.736 12.7676 125.506 12.584C125.275 12.4004 125.078 12.1641 124.914 11.875C124.754 11.582 124.629 11.2324 124.539 10.8262C124.453 10.4199 124.41 9.94922 124.41 9.41406V8.01953C124.41 7.34766 124.477 6.78125 124.609 6.32031C124.742 5.85547 124.932 5.47852 125.178 5.18945C125.424 4.89648 125.717 4.68359 126.057 4.55078C126.4 4.41797 126.783 4.35156 127.205 4.35156C127.545 4.35156 127.857 4.39453 128.143 4.48047C128.432 4.5625 128.689 4.69336 128.916 4.87305C129.146 5.05273 129.342 5.28711 129.502 5.57617C129.666 5.86133 129.791 6.20703 129.877 6.61328C129.963 7.01562 130.006 7.48438 130.006 8.01953ZM128.594 9.61328V7.80859C128.594 7.46875 128.574 7.16992 128.535 6.91211C128.496 6.65039 128.438 6.42969 128.359 6.25C128.285 6.06641 128.191 5.91797 128.078 5.80469C127.965 5.6875 127.836 5.60352 127.691 5.55273C127.547 5.49805 127.385 5.4707 127.205 5.4707C126.986 5.4707 126.791 5.51367 126.619 5.59961C126.447 5.68164 126.303 5.81445 126.186 5.99805C126.068 6.18164 125.979 6.42383 125.916 6.72461C125.857 7.02148 125.828 7.38281 125.828 7.80859V9.61328C125.828 9.95703 125.848 10.2598 125.887 10.5215C125.926 10.7832 125.984 11.0078 126.062 11.1953C126.141 11.3789 126.234 11.5312 126.344 11.6523C126.457 11.7695 126.586 11.8555 126.73 11.9102C126.879 11.9648 127.041 11.9922 127.217 11.9922C127.439 11.9922 127.637 11.9492 127.809 11.8633C127.98 11.7773 128.125 11.6406 128.242 11.4531C128.359 11.2617 128.447 11.0137 128.506 10.709C128.564 10.4043 128.594 10.0391 128.594 9.61328ZM134.072 9.53125V9.63086C134.072 10.4551 133.979 11.207 133.791 11.8867C133.607 12.5664 133.367 13.1641 133.07 13.6797C132.777 14.1953 132.459 14.625 132.115 14.9688C131.775 15.3125 131.449 15.5605 131.137 15.7129L130.85 14.9395C131.076 14.7676 131.301 14.5312 131.523 14.2305C131.75 13.9336 131.955 13.5645 132.139 13.123C132.326 12.6855 132.475 12.1777 132.584 11.5996C132.697 11.0215 132.754 10.3691 132.754 9.64258V9.51953C132.754 8.79297 132.695 8.14062 132.578 7.5625C132.465 6.98047 132.312 6.47266 132.121 6.03906C131.93 5.60156 131.723 5.23242 131.5 4.93164C131.277 4.63086 131.061 4.39648 130.85 4.22852L131.137 3.45508C131.449 3.60352 131.775 3.84961 132.115 4.19336C132.459 4.53711 132.777 4.96875 133.07 5.48828C133.367 6.00391 133.607 6.60156 133.791 7.28125C133.979 7.96094 134.072 8.71094 134.072 9.53125Z" fill="#8C8C8C"/>
</svg>
