<svg width="207" height="64" viewBox="0 0 207 64" fill="none" xmlns="http://www.w3.org/2000/svg">
<g filter="url(#filter0_d_1_576)">
<rect x="4" width="199" height="56" rx="8" fill="#FEEA00" shape-rendering="crispEdges"/>
<path d="M38.7109 31.6055C38.7109 31.2539 38.6562 30.9414 38.5469 30.668C38.4453 30.3945 38.2617 30.1445 37.9961 29.918C37.7305 29.6914 37.3555 29.4727 36.8711 29.2617C36.3945 29.043 35.7852 28.8203 35.043 28.5938C34.2305 28.3438 33.4805 28.0664 32.793 27.7617C32.1133 27.4492 31.5195 27.0898 31.0117 26.6836C30.5039 26.2695 30.1094 25.7969 29.8281 25.2656C29.5469 24.7266 29.4062 24.1055 29.4062 23.4023C29.4062 22.707 29.5508 22.0742 29.8398 21.5039C30.1367 20.9336 30.5547 20.4414 31.0938 20.0273C31.6406 19.6055 32.2852 19.2812 33.0273 19.0547C33.7695 18.8203 34.5898 18.7031 35.4883 18.7031C36.7539 18.7031 37.8438 18.9375 38.7578 19.4062C39.6797 19.875 40.3867 20.5039 40.8789 21.293C41.3789 22.082 41.6289 22.9531 41.6289 23.9062H38.7109C38.7109 23.3438 38.5898 22.8477 38.3477 22.418C38.1133 21.9805 37.7539 21.6367 37.2695 21.3867C36.793 21.1367 36.1875 21.0117 35.4531 21.0117C34.7578 21.0117 34.1797 21.1172 33.7188 21.3281C33.2578 21.5391 32.9141 21.8242 32.6875 22.1836C32.4609 22.543 32.3477 22.9492 32.3477 23.4023C32.3477 23.7227 32.4219 24.0156 32.5703 24.2812C32.7188 24.5391 32.9453 24.7812 33.25 25.0078C33.5547 25.2266 33.9375 25.4336 34.3984 25.6289C34.8594 25.8242 35.4023 26.0117 36.0273 26.1914C36.9727 26.4727 37.7969 26.7852 38.5 27.1289C39.2031 27.4648 39.7891 27.8477 40.2578 28.2773C40.7266 28.707 41.0781 29.1953 41.3125 29.7422C41.5469 30.2812 41.6641 30.8945 41.6641 31.582C41.6641 32.3008 41.5195 32.9492 41.2305 33.5273C40.9414 34.0977 40.5273 34.5859 39.9883 34.9922C39.457 35.3906 38.8164 35.6992 38.0664 35.918C37.3242 36.1289 36.4961 36.2344 35.582 36.2344C34.7617 36.2344 33.9531 36.125 33.1562 35.9062C32.3672 35.6875 31.6484 35.3555 31 34.9102C30.3516 34.457 29.8359 33.8945 29.4531 33.2227C29.0703 32.543 28.8789 31.75 28.8789 30.8438H31.8203C31.8203 31.3984 31.9141 31.8711 32.1016 32.2617C32.2969 32.6523 32.5664 32.9727 32.9102 33.2227C33.2539 33.4648 33.6523 33.6445 34.1055 33.7617C34.5664 33.8789 35.0586 33.9375 35.582 33.9375C36.2695 33.9375 36.8438 33.8398 37.3047 33.6445C37.7734 33.4492 38.125 33.1758 38.3594 32.8242C38.5938 32.4727 38.7109 32.0664 38.7109 31.6055ZM49.5742 36.2344C48.6367 36.2344 47.7891 36.082 47.0312 35.7773C46.2812 35.4648 45.6406 35.0312 45.1094 34.4766C44.5859 33.9219 44.1836 33.2695 43.9023 32.5195C43.6211 31.7695 43.4805 30.9609 43.4805 30.0938V29.625C43.4805 28.6328 43.625 27.7344 43.9141 26.9297C44.2031 26.125 44.6055 25.4375 45.1211 24.8672C45.6367 24.2891 46.2461 23.8477 46.9492 23.543C47.6523 23.2383 48.4141 23.0859 49.2344 23.0859C50.1406 23.0859 50.9336 23.2383 51.6133 23.543C52.293 23.8477 52.8555 24.2773 53.3008 24.832C53.7539 25.3789 54.0898 26.0312 54.3086 26.7891C54.5352 27.5469 54.6484 28.3828 54.6484 29.2969V30.5039H44.8516V28.4766H51.8594V28.2539C51.8438 27.7461 51.7422 27.2695 51.5547 26.8242C51.375 26.3789 51.0977 26.0195 50.7227 25.7461C50.3477 25.4727 49.8477 25.3359 49.2227 25.3359C48.7539 25.3359 48.3359 25.4375 47.9688 25.6406C47.6094 25.8359 47.3086 26.1211 47.0664 26.4961C46.8242 26.8711 46.6367 27.3242 46.5039 27.8555C46.3789 28.3789 46.3164 28.9688 46.3164 29.625V30.0938C46.3164 30.6484 46.3906 31.1641 46.5391 31.6406C46.6953 32.1094 46.9219 32.5195 47.2188 32.8711C47.5156 33.2227 47.875 33.5 48.2969 33.7031C48.7188 33.8984 49.1992 33.9961 49.7383 33.9961C50.418 33.9961 51.0234 33.8594 51.5547 33.5859C52.0859 33.3125 52.5469 32.9258 52.9375 32.4258L54.4258 33.8672C54.1523 34.2656 53.7969 34.6484 53.3594 35.0156C52.9219 35.375 52.3867 35.668 51.7539 35.8945C51.1289 36.1211 50.4023 36.2344 49.5742 36.2344ZM59.875 18V36H57.0391V18H59.875ZM68.5586 36.2344C67.6211 36.2344 66.7734 36.082 66.0156 35.7773C65.2656 35.4648 64.625 35.0312 64.0938 34.4766C63.5703 33.9219 63.168 33.2695 62.8867 32.5195C62.6055 31.7695 62.4648 30.9609 62.4648 30.0938V29.625C62.4648 28.6328 62.6094 27.7344 62.8984 26.9297C63.1875 26.125 63.5898 25.4375 64.1055 24.8672C64.6211 24.2891 65.2305 23.8477 65.9336 23.543C66.6367 23.2383 67.3984 23.0859 68.2188 23.0859C69.125 23.0859 69.918 23.2383 70.5977 23.543C71.2773 23.8477 71.8398 24.2773 72.2852 24.832C72.7383 25.3789 73.0742 26.0312 73.293 26.7891C73.5195 27.5469 73.6328 28.3828 73.6328 29.2969V30.5039H63.8359V28.4766H70.8438V28.2539C70.8281 27.7461 70.7266 27.2695 70.5391 26.8242C70.3594 26.3789 70.082 26.0195 69.707 25.7461C69.332 25.4727 68.832 25.3359 68.207 25.3359C67.7383 25.3359 67.3203 25.4375 66.9531 25.6406C66.5938 25.8359 66.293 26.1211 66.0508 26.4961C65.8086 26.8711 65.6211 27.3242 65.4883 27.8555C65.3633 28.3789 65.3008 28.9688 65.3008 29.625V30.0938C65.3008 30.6484 65.375 31.1641 65.5234 31.6406C65.6797 32.1094 65.9062 32.5195 66.2031 32.8711C66.5 33.2227 66.8594 33.5 67.2812 33.7031C67.7031 33.8984 68.1836 33.9961 68.7227 33.9961C69.4023 33.9961 70.0078 33.8594 70.5391 33.5859C71.0703 33.3125 71.5312 32.9258 71.9219 32.4258L73.4102 33.8672C73.1367 34.2656 72.7812 34.6484 72.3438 35.0156C71.9062 35.375 71.3711 35.668 70.7383 35.8945C70.1133 36.1211 69.3867 36.2344 68.5586 36.2344ZM78.6367 26.0273V36H75.8125V23.3203H78.4727L78.6367 26.0273ZM78.1328 29.1914L77.2188 29.1797C77.2266 28.2812 77.3516 27.457 77.5938 26.707C77.8438 25.957 78.1875 25.3125 78.625 24.7734C79.0703 24.2344 79.6016 23.8203 80.2188 23.5312C80.8359 23.2344 81.5234 23.0859 82.2812 23.0859C82.8906 23.0859 83.4414 23.1719 83.9336 23.3438C84.4336 23.5078 84.8594 23.7773 85.2109 24.1523C85.5703 24.5273 85.8438 25.0156 86.0312 25.6172C86.2188 26.2109 86.3125 26.9414 86.3125 27.8086V36H83.4766V27.7969C83.4766 27.1875 83.3867 26.707 83.207 26.3555C83.0352 25.9961 82.7812 25.7422 82.4453 25.5938C82.1172 25.4375 81.707 25.3594 81.2148 25.3594C80.7305 25.3594 80.2969 25.4609 79.9141 25.6641C79.5312 25.8672 79.207 26.1445 78.9414 26.4961C78.6836 26.8477 78.4844 27.2539 78.3438 27.7148C78.2031 28.1758 78.1328 28.668 78.1328 29.1914ZM97.3164 23.3203H99.8828V35.6484C99.8828 36.7891 99.6406 37.7578 99.1562 38.5547C98.6719 39.3516 97.9961 39.957 97.1289 40.3711C96.2617 40.793 95.2578 41.0039 94.1172 41.0039C93.6328 41.0039 93.0938 40.9336 92.5 40.793C91.9141 40.6523 91.3438 40.4258 90.7891 40.1133C90.2422 39.8086 89.7852 39.4062 89.418 38.9062L90.7422 37.2422C91.1953 37.7812 91.6953 38.1758 92.2422 38.4258C92.7891 38.6758 93.3633 38.8008 93.9648 38.8008C94.6133 38.8008 95.1641 38.6797 95.6172 38.4375C96.0781 38.2031 96.4336 37.8555 96.6836 37.3945C96.9336 36.9336 97.0586 36.3711 97.0586 35.707V26.1914L97.3164 23.3203ZM88.7031 29.8008V29.5547C88.7031 28.5938 88.8203 27.7188 89.0547 26.9297C89.2891 26.1328 89.625 25.4492 90.0625 24.8789C90.5 24.3008 91.0312 23.8594 91.6562 23.5547C92.2812 23.2422 92.9883 23.0859 93.7773 23.0859C94.5977 23.0859 95.2969 23.2344 95.875 23.5312C96.4609 23.8281 96.9492 24.2539 97.3398 24.8086C97.7305 25.3555 98.0352 26.0117 98.2539 26.7773C98.4805 27.5352 98.6484 28.3789 98.7578 29.3086V30.0938C98.6562 31 98.4844 31.8281 98.2422 32.5781C98 33.3281 97.6797 33.9766 97.2812 34.5234C96.8828 35.0703 96.3906 35.4922 95.8047 35.7891C95.2266 36.0859 94.543 36.2344 93.7539 36.2344C92.9805 36.2344 92.2812 36.0742 91.6562 35.7539C91.0391 35.4336 90.5078 34.9844 90.0625 34.4062C89.625 33.8281 89.2891 33.1484 89.0547 32.3672C88.8203 31.5781 88.7031 30.7227 88.7031 29.8008ZM91.5273 29.5547V29.8008C91.5273 30.3789 91.582 30.918 91.6914 31.418C91.8086 31.918 91.9844 32.3594 92.2188 32.7422C92.4609 33.1172 92.7656 33.4141 93.1328 33.6328C93.5078 33.8438 93.9492 33.9492 94.457 33.9492C95.1211 33.9492 95.6641 33.8086 96.0859 33.5273C96.5156 33.2461 96.8438 32.8672 97.0703 32.3906C97.3047 31.9062 97.4688 31.3672 97.5625 30.7734V28.6523C97.5156 28.1914 97.418 27.7617 97.2695 27.3633C97.1289 26.9648 96.9375 26.6172 96.6953 26.3203C96.4531 26.0156 96.1484 25.7812 95.7812 25.6172C95.4141 25.4453 94.9805 25.3594 94.4805 25.3594C93.9727 25.3594 93.5312 25.4688 93.1562 25.6875C92.7812 25.9062 92.4727 26.207 92.2305 26.5898C91.9961 26.9727 91.8203 27.418 91.7031 27.9258C91.5859 28.4336 91.5273 28.9766 91.5273 29.5547ZM105.66 18V36H102.824V18H105.66ZM113.535 23.3203L108.016 29.4375L104.992 32.5312L104.254 30.1406L106.539 27.3164L110.125 23.3203H113.535ZM110.734 36L106.621 30.0469L108.402 28.0664L114.004 36H110.734ZM122.477 33.457V27.4102C122.477 26.957 122.395 26.5664 122.23 26.2383C122.066 25.9102 121.816 25.6562 121.48 25.4766C121.152 25.2969 120.738 25.207 120.238 25.207C119.777 25.207 119.379 25.2852 119.043 25.4414C118.707 25.5977 118.445 25.8086 118.258 26.0742C118.07 26.3398 117.977 26.6406 117.977 26.9766H115.164C115.164 26.4766 115.285 25.9922 115.527 25.5234C115.77 25.0547 116.121 24.6367 116.582 24.2695C117.043 23.9023 117.594 23.6133 118.234 23.4023C118.875 23.1914 119.594 23.0859 120.391 23.0859C121.344 23.0859 122.188 23.2461 122.922 23.5664C123.664 23.8867 124.246 24.3711 124.668 25.0195C125.098 25.6602 125.312 26.4648 125.312 27.4336V33.0703C125.312 33.6484 125.352 34.168 125.43 34.6289C125.516 35.082 125.637 35.4766 125.793 35.8125V36H122.898C122.766 35.6953 122.66 35.3086 122.582 34.8398C122.512 34.3633 122.477 33.9023 122.477 33.457ZM122.887 28.2891L122.91 30.0352H120.883C120.359 30.0352 119.898 30.0859 119.5 30.1875C119.102 30.2812 118.77 30.4219 118.504 30.6094C118.238 30.7969 118.039 31.0234 117.906 31.2891C117.773 31.5547 117.707 31.8555 117.707 32.1914C117.707 32.5273 117.785 32.8359 117.941 33.1172C118.098 33.3906 118.324 33.6055 118.621 33.7617C118.926 33.918 119.293 33.9961 119.723 33.9961C120.301 33.9961 120.805 33.8789 121.234 33.6445C121.672 33.4023 122.016 33.1094 122.266 32.7656C122.516 32.4141 122.648 32.082 122.664 31.7695L123.578 33.0234C123.484 33.3438 123.324 33.6875 123.098 34.0547C122.871 34.4219 122.574 34.7734 122.207 35.1094C121.848 35.4375 121.414 35.707 120.906 35.918C120.406 36.1289 119.828 36.2344 119.172 36.2344C118.344 36.2344 117.605 36.0703 116.957 35.7422C116.309 35.4062 115.801 34.957 115.434 34.3945C115.066 33.8242 114.883 33.1797 114.883 32.4609C114.883 31.7891 115.008 31.1953 115.258 30.6797C115.516 30.1562 115.891 29.7188 116.383 29.3672C116.883 29.0156 117.492 28.75 118.211 28.5703C118.93 28.3828 119.75 28.2891 120.672 28.2891H122.887ZM131.102 25.7578V40.875H128.277V23.3203H130.879L131.102 25.7578ZM139.363 29.543V29.7891C139.363 30.7109 139.254 31.5664 139.035 32.3555C138.824 33.1367 138.508 33.8203 138.086 34.4062C137.672 34.9844 137.16 35.4336 136.551 35.7539C135.941 36.0742 135.238 36.2344 134.441 36.2344C133.652 36.2344 132.961 36.0898 132.367 35.8008C131.781 35.5039 131.285 35.0859 130.879 34.5469C130.473 34.0078 130.145 33.375 129.895 32.6484C129.652 31.9141 129.48 31.1094 129.379 30.2344V29.2852C129.48 28.3555 129.652 27.5117 129.895 26.7539C130.145 25.9961 130.473 25.3438 130.879 24.7969C131.285 24.25 131.781 23.8281 132.367 23.5312C132.953 23.2344 133.637 23.0859 134.418 23.0859C135.215 23.0859 135.922 23.2422 136.539 23.5547C137.156 23.8594 137.676 24.2969 138.098 24.8672C138.52 25.4297 138.836 26.1094 139.047 26.9062C139.258 27.6953 139.363 28.5742 139.363 29.543ZM136.539 29.7891V29.543C136.539 28.957 136.484 28.4141 136.375 27.9141C136.266 27.4062 136.094 26.9609 135.859 26.5781C135.625 26.1953 135.324 25.8984 134.957 25.6875C134.598 25.4688 134.164 25.3594 133.656 25.3594C133.156 25.3594 132.727 25.4453 132.367 25.6172C132.008 25.7812 131.707 26.0117 131.465 26.3086C131.223 26.6055 131.035 26.9531 130.902 27.3516C130.77 27.7422 130.676 28.168 130.621 28.6289V30.9023C130.715 31.4648 130.875 31.9805 131.102 32.4492C131.328 32.918 131.648 33.293 132.062 33.5742C132.484 33.8477 133.023 33.9844 133.68 33.9844C134.188 33.9844 134.621 33.875 134.98 33.6562C135.34 33.4375 135.633 33.1367 135.859 32.7539C136.094 32.3633 136.266 31.9141 136.375 31.4062C136.484 30.8984 136.539 30.3594 136.539 29.7891ZM144.566 26.0273V36H141.742V23.3203H144.402L144.566 26.0273ZM144.062 29.1914L143.148 29.1797C143.156 28.2812 143.281 27.457 143.523 26.707C143.773 25.957 144.117 25.3125 144.555 24.7734C145 24.2344 145.531 23.8203 146.148 23.5312C146.766 23.2344 147.453 23.0859 148.211 23.0859C148.82 23.0859 149.371 23.1719 149.863 23.3438C150.363 23.5078 150.789 23.7773 151.141 24.1523C151.5 24.5273 151.773 25.0156 151.961 25.6172C152.148 26.2109 152.242 26.9414 152.242 27.8086V36H149.406V27.7969C149.406 27.1875 149.316 26.707 149.137 26.3555C148.965 25.9961 148.711 25.7422 148.375 25.5938C148.047 25.4375 147.637 25.3594 147.145 25.3594C146.66 25.3594 146.227 25.4609 145.844 25.6641C145.461 25.8672 145.137 26.1445 144.871 26.4961C144.613 26.8477 144.414 27.2539 144.273 27.7148C144.133 28.1758 144.062 28.668 144.062 29.1914ZM158.805 34.6172L162.25 23.3203H165.273L160.188 37.9336C160.07 38.2461 159.918 38.5859 159.73 38.9531C159.543 39.3203 159.297 39.668 158.992 39.9961C158.695 40.332 158.324 40.6016 157.879 40.8047C157.434 41.0156 156.895 41.1211 156.262 41.1211C156.012 41.1211 155.77 41.0977 155.535 41.0508C155.309 41.0117 155.094 40.9688 154.891 40.9219L154.879 38.7656C154.957 38.7734 155.051 38.7812 155.16 38.7891C155.277 38.7969 155.371 38.8008 155.441 38.8008C155.91 38.8008 156.301 38.7422 156.613 38.625C156.926 38.5156 157.18 38.3359 157.375 38.0859C157.578 37.8359 157.75 37.5 157.891 37.0781L158.805 34.6172ZM156.859 23.3203L159.871 32.8125L160.375 35.7891L158.418 36.293L153.812 23.3203H156.859ZM173.852 33.457V27.4102C173.852 26.957 173.77 26.5664 173.605 26.2383C173.441 25.9102 173.191 25.6562 172.855 25.4766C172.527 25.2969 172.113 25.207 171.613 25.207C171.152 25.207 170.754 25.2852 170.418 25.4414C170.082 25.5977 169.82 25.8086 169.633 26.0742C169.445 26.3398 169.352 26.6406 169.352 26.9766H166.539C166.539 26.4766 166.66 25.9922 166.902 25.5234C167.145 25.0547 167.496 24.6367 167.957 24.2695C168.418 23.9023 168.969 23.6133 169.609 23.4023C170.25 23.1914 170.969 23.0859 171.766 23.0859C172.719 23.0859 173.562 23.2461 174.297 23.5664C175.039 23.8867 175.621 24.3711 176.043 25.0195C176.473 25.6602 176.688 26.4648 176.688 27.4336V33.0703C176.688 33.6484 176.727 34.168 176.805 34.6289C176.891 35.082 177.012 35.4766 177.168 35.8125V36H174.273C174.141 35.6953 174.035 35.3086 173.957 34.8398C173.887 34.3633 173.852 33.9023 173.852 33.457ZM174.262 28.2891L174.285 30.0352H172.258C171.734 30.0352 171.273 30.0859 170.875 30.1875C170.477 30.2812 170.145 30.4219 169.879 30.6094C169.613 30.7969 169.414 31.0234 169.281 31.2891C169.148 31.5547 169.082 31.8555 169.082 32.1914C169.082 32.5273 169.16 32.8359 169.316 33.1172C169.473 33.3906 169.699 33.6055 169.996 33.7617C170.301 33.918 170.668 33.9961 171.098 33.9961C171.676 33.9961 172.18 33.8789 172.609 33.6445C173.047 33.4023 173.391 33.1094 173.641 32.7656C173.891 32.4141 174.023 32.082 174.039 31.7695L174.953 33.0234C174.859 33.3438 174.699 33.6875 174.473 34.0547C174.246 34.4219 173.949 34.7734 173.582 35.1094C173.223 35.4375 172.789 35.707 172.281 35.918C171.781 36.1289 171.203 36.2344 170.547 36.2344C169.719 36.2344 168.98 36.0703 168.332 35.7422C167.684 35.4062 167.176 34.957 166.809 34.3945C166.441 33.8242 166.258 33.1797 166.258 32.4609C166.258 31.7891 166.383 31.1953 166.633 30.6797C166.891 30.1562 167.266 29.7188 167.758 29.3672C168.258 29.0156 168.867 28.75 169.586 28.5703C170.305 28.3828 171.125 28.2891 172.047 28.2891H174.262Z" fill="black"/>
</g>
<defs>
<filter id="filter0_d_1_576" x="0" y="0" width="207" height="64" filterUnits="userSpaceOnUse" color-interpolation-filters="sRGB">
<feFlood flood-opacity="0" result="BackgroundImageFix"/>
<feColorMatrix in="SourceAlpha" type="matrix" values="0 0 0 0 0 0 0 0 0 0 0 0 0 0 0 0 0 0 127 0" result="hardAlpha"/>
<feOffset dy="4"/>
<feGaussianBlur stdDeviation="2"/>
<feComposite in2="hardAlpha" operator="out"/>
<feColorMatrix type="matrix" values="0 0 0 0 0 0 0 0 0 0 0 0 0 0 0 0 0 0 0.25 0"/>
<feBlend mode="normal" in2="BackgroundImageFix" result="effect1_dropShadow_1_576"/>
<feBlend mode="normal" in="SourceGraphic" in2="effect1_dropShadow_1_576" result="shape"/>
</filter>
</defs>
</svg>
