<svg width="231" height="62" viewBox="0 0 231 62" fill="none" xmlns="http://www.w3.org/2000/svg">
<rect width="231" height="62" rx="8" fill="url(#paint0_linear_1_529)"/>
<path d="M36.4961 35.873C36.4961 35.4629 36.4323 35.0983 36.3047 34.7793C36.1862 34.4603 35.972 34.1686 35.6621 33.9043C35.3522 33.64 34.9147 33.3848 34.3496 33.1387C33.7936 32.8835 33.0827 32.6237 32.2168 32.3594C31.2689 32.0677 30.3939 31.7441 29.5918 31.3887C28.7988 31.0241 28.1061 30.6048 27.5137 30.1309C26.9212 29.6478 26.4609 29.0964 26.1328 28.4766C25.8047 27.8477 25.6406 27.123 25.6406 26.3027C25.6406 25.4915 25.8092 24.7533 26.1465 24.0879C26.4928 23.4225 26.9805 22.8483 27.6094 22.3652C28.2474 21.873 28.9993 21.4948 29.8652 21.2305C30.7311 20.957 31.6882 20.8203 32.7363 20.8203C34.2129 20.8203 35.4844 21.0938 36.5508 21.6406C37.6263 22.1875 38.4512 22.9212 39.0254 23.8418C39.6087 24.7624 39.9004 25.7786 39.9004 26.8906H36.4961C36.4961 26.2344 36.3548 25.6556 36.0723 25.1543C35.7988 24.6439 35.3796 24.2428 34.8145 23.9512C34.2585 23.6595 33.5521 23.5137 32.6953 23.5137C31.8841 23.5137 31.2096 23.6367 30.6719 23.8828C30.1341 24.1289 29.7331 24.4616 29.4688 24.8809C29.2044 25.3001 29.0723 25.7741 29.0723 26.3027C29.0723 26.6764 29.1589 27.0182 29.332 27.3281C29.5052 27.6289 29.7695 27.9115 30.125 28.1758C30.4805 28.431 30.9271 28.6725 31.4648 28.9004C32.0026 29.1283 32.6361 29.347 33.3652 29.5566C34.4681 29.8848 35.4297 30.2493 36.25 30.6504C37.0703 31.0423 37.7539 31.4889 38.3008 31.9902C38.8477 32.4915 39.2578 33.0612 39.5312 33.6992C39.8047 34.3281 39.9414 35.0436 39.9414 35.8457C39.9414 36.6842 39.7728 37.4408 39.4355 38.1152C39.0983 38.7806 38.6152 39.3503 37.9863 39.8242C37.3665 40.2891 36.6191 40.6491 35.7441 40.9043C34.8783 41.1504 33.9121 41.2734 32.8457 41.2734C31.8887 41.2734 30.9453 41.1458 30.0156 40.8906C29.0951 40.6354 28.2565 40.248 27.5 39.7285C26.7435 39.1999 26.1419 38.5436 25.6953 37.7598C25.2487 36.9668 25.0254 36.0417 25.0254 34.9844H28.457C28.457 35.6315 28.5664 36.1829 28.7852 36.6387C29.013 37.0944 29.3275 37.4681 29.7285 37.7598C30.1296 38.0423 30.5944 38.252 31.123 38.3887C31.6608 38.5254 32.235 38.5938 32.8457 38.5938C33.6478 38.5938 34.3177 38.4798 34.8555 38.252C35.4023 38.0241 35.8125 37.7051 36.0859 37.2949C36.3594 36.8848 36.4961 36.4108 36.4961 35.873ZM45.9434 29.2148V41H42.6484V26.207H45.752L45.9434 29.2148ZM45.4102 33.0566L44.2891 33.043C44.2891 32.0221 44.4167 31.0788 44.6719 30.2129C44.9271 29.347 45.3008 28.5951 45.793 27.957C46.2852 27.3099 46.8958 26.8132 47.625 26.4668C48.3633 26.1113 49.2155 25.9336 50.1816 25.9336C50.8561 25.9336 51.4714 26.0339 52.0273 26.2344C52.5924 26.4258 53.0801 26.7311 53.4902 27.1504C53.9095 27.5697 54.2285 28.1074 54.4473 28.7637C54.6751 29.4199 54.7891 30.2129 54.7891 31.1426V41H51.4941V31.4297C51.4941 30.7096 51.3848 30.1445 51.166 29.7344C50.9564 29.3242 50.651 29.0326 50.25 28.8594C49.8581 28.6771 49.3887 28.5859 48.8418 28.5859C48.222 28.5859 47.6934 28.7044 47.2559 28.9414C46.8275 29.1784 46.4766 29.502 46.2031 29.9121C45.9297 30.3223 45.7292 30.7962 45.6016 31.334C45.474 31.8717 45.4102 32.446 45.4102 33.0566ZM54.584 32.1816L53.0391 32.5234C53.0391 31.6302 53.1621 30.7871 53.4082 29.9941C53.6634 29.1921 54.0326 28.4902 54.5156 27.8887C55.0078 27.278 55.6139 26.7995 56.334 26.4531C57.054 26.1068 57.8789 25.9336 58.8086 25.9336C59.5651 25.9336 60.2396 26.0384 60.832 26.248C61.4336 26.4486 61.944 26.7676 62.3633 27.2051C62.7826 27.6426 63.1016 28.2122 63.3203 28.9141C63.5391 29.6068 63.6484 30.4453 63.6484 31.4297V41H60.3398V31.416C60.3398 30.6686 60.2305 30.0898 60.0117 29.6797C59.8021 29.2695 59.5013 28.987 59.1094 28.832C58.7174 28.668 58.248 28.5859 57.7012 28.5859C57.1908 28.5859 56.7396 28.6816 56.3477 28.873C55.9648 29.0553 55.6413 29.3151 55.377 29.6523C55.1126 29.9805 54.9121 30.3587 54.7754 30.7871C54.6478 31.2155 54.584 31.6803 54.584 32.1816ZM75.3789 38.0332V30.9785C75.3789 30.4499 75.2832 29.9941 75.0918 29.6113C74.9004 29.2285 74.6087 28.9323 74.2168 28.7227C73.834 28.513 73.3509 28.4082 72.7676 28.4082C72.2298 28.4082 71.765 28.4993 71.373 28.6816C70.9811 28.8639 70.6758 29.11 70.457 29.4199C70.2383 29.7298 70.1289 30.0807 70.1289 30.4727H66.8477C66.8477 29.8893 66.9889 29.3242 67.2715 28.7773C67.554 28.2305 67.9642 27.7428 68.502 27.3145C69.0397 26.8861 69.6823 26.5488 70.4297 26.3027C71.1771 26.0566 72.0156 25.9336 72.9453 25.9336C74.0573 25.9336 75.0417 26.1204 75.8984 26.4941C76.7643 26.8678 77.4434 27.4329 77.9355 28.1895C78.4368 28.9368 78.6875 29.8757 78.6875 31.0059V37.582C78.6875 38.2565 78.7331 38.8626 78.8242 39.4004C78.9245 39.929 79.0658 40.3893 79.248 40.7812V41H75.8711C75.7161 40.6445 75.5931 40.1934 75.502 39.6465C75.4199 39.0905 75.3789 38.5527 75.3789 38.0332ZM75.8574 32.0039L75.8848 34.041H73.5195C72.9089 34.041 72.3711 34.1003 71.9062 34.2188C71.4414 34.3281 71.054 34.4922 70.7441 34.7109C70.4342 34.9297 70.2018 35.194 70.0469 35.5039C69.8919 35.8138 69.8145 36.1647 69.8145 36.5566C69.8145 36.9486 69.9056 37.3086 70.0879 37.6367C70.2702 37.9557 70.5345 38.2064 70.8809 38.3887C71.2363 38.571 71.6647 38.6621 72.166 38.6621C72.8405 38.6621 73.4284 38.5254 73.9297 38.252C74.4401 37.9694 74.8411 37.6276 75.1328 37.2266C75.4245 36.8164 75.5794 36.429 75.5977 36.0645L76.6641 37.5273C76.5547 37.901 76.3678 38.3021 76.1035 38.7305C75.8392 39.1589 75.4928 39.569 75.0645 39.9609C74.6452 40.3438 74.1393 40.6582 73.5469 40.9043C72.9635 41.1504 72.2891 41.2734 71.5234 41.2734C70.5573 41.2734 69.696 41.082 68.9395 40.6992C68.1829 40.3073 67.5905 39.7832 67.1621 39.127C66.7337 38.4616 66.5195 37.7096 66.5195 36.8711C66.5195 36.0872 66.6654 35.3945 66.957 34.793C67.2578 34.1823 67.6953 33.6719 68.2695 33.2617C68.8529 32.8516 69.5638 32.5417 70.4023 32.332C71.2409 32.1133 72.1979 32.0039 73.2734 32.0039H75.8574ZM85.4414 29.0234V41H82.1465V26.207H85.291L85.4414 29.0234ZM89.9668 26.1113L89.9395 29.1738C89.7389 29.1374 89.5202 29.11 89.2832 29.0918C89.0553 29.0736 88.8275 29.0645 88.5996 29.0645C88.0345 29.0645 87.5378 29.1465 87.1094 29.3105C86.681 29.4655 86.321 29.6934 86.0293 29.9941C85.7467 30.2858 85.528 30.6413 85.373 31.0605C85.2181 31.4798 85.127 31.9492 85.0996 32.4688L84.3477 32.5234C84.3477 31.5938 84.4388 30.7324 84.6211 29.9395C84.8034 29.1465 85.0768 28.4492 85.4414 27.8477C85.8151 27.2461 86.2799 26.7767 86.8359 26.4395C87.401 26.1022 88.0527 25.9336 88.791 25.9336C88.9915 25.9336 89.2057 25.9518 89.4336 25.9883C89.6706 26.0247 89.8483 26.0658 89.9668 26.1113ZM99.4961 26.207V28.6133H91.1562V26.207H99.4961ZM93.5625 22.584H96.8574V36.9121C96.8574 37.3678 96.9212 37.7188 97.0488 37.9648C97.1855 38.2018 97.3724 38.3613 97.6094 38.4434C97.8464 38.5254 98.1243 38.5664 98.4434 38.5664C98.6712 38.5664 98.89 38.5527 99.0996 38.5254C99.3092 38.498 99.4779 38.4707 99.6055 38.4434L99.6191 40.959C99.3457 41.041 99.0267 41.1139 98.6621 41.1777C98.3066 41.2415 97.8965 41.2734 97.4316 41.2734C96.6751 41.2734 96.0052 41.1413 95.4219 40.877C94.8385 40.6035 94.3828 40.1615 94.0547 39.5508C93.7266 38.9401 93.5625 38.1289 93.5625 37.1172V22.584ZM116.162 37.3633L121.398 21.0938H125.186L118.049 41H115.492L116.162 37.3633ZM111.322 21.0938L116.518 37.3633L117.229 41H114.658L107.549 21.0938H111.322ZM134.797 38.0332V30.9785C134.797 30.4499 134.701 29.9941 134.51 29.6113C134.318 29.2285 134.027 28.9323 133.635 28.7227C133.252 28.513 132.769 28.4082 132.186 28.4082C131.648 28.4082 131.183 28.4993 130.791 28.6816C130.399 28.8639 130.094 29.11 129.875 29.4199C129.656 29.7298 129.547 30.0807 129.547 30.4727H126.266C126.266 29.8893 126.407 29.3242 126.689 28.7773C126.972 28.2305 127.382 27.7428 127.92 27.3145C128.458 26.8861 129.1 26.5488 129.848 26.3027C130.595 26.0566 131.434 25.9336 132.363 25.9336C133.475 25.9336 134.46 26.1204 135.316 26.4941C136.182 26.8678 136.861 27.4329 137.354 28.1895C137.855 28.9368 138.105 29.8757 138.105 31.0059V37.582C138.105 38.2565 138.151 38.8626 138.242 39.4004C138.342 39.929 138.484 40.3893 138.666 40.7812V41H135.289C135.134 40.6445 135.011 40.1934 134.92 39.6465C134.838 39.0905 134.797 38.5527 134.797 38.0332ZM135.275 32.0039L135.303 34.041H132.938C132.327 34.041 131.789 34.1003 131.324 34.2188C130.859 34.3281 130.472 34.4922 130.162 34.7109C129.852 34.9297 129.62 35.194 129.465 35.5039C129.31 35.8138 129.232 36.1647 129.232 36.5566C129.232 36.9486 129.324 37.3086 129.506 37.6367C129.688 37.9557 129.952 38.2064 130.299 38.3887C130.654 38.571 131.083 38.6621 131.584 38.6621C132.258 38.6621 132.846 38.5254 133.348 38.252C133.858 37.9694 134.259 37.6276 134.551 37.2266C134.842 36.8164 134.997 36.429 135.016 36.0645L136.082 37.5273C135.973 37.901 135.786 38.3021 135.521 38.7305C135.257 39.1589 134.911 39.569 134.482 39.9609C134.063 40.3438 133.557 40.6582 132.965 40.9043C132.382 41.1504 131.707 41.2734 130.941 41.2734C129.975 41.2734 129.114 41.082 128.357 40.6992C127.601 40.3073 127.008 39.7832 126.58 39.127C126.152 38.4616 125.938 37.7096 125.938 36.8711C125.938 36.0872 126.083 35.3945 126.375 34.793C126.676 34.1823 127.113 33.6719 127.688 33.2617C128.271 32.8516 128.982 32.5417 129.82 32.332C130.659 32.1133 131.616 32.0039 132.691 32.0039H135.275ZM144.873 20V41H141.564V20H144.873ZM154.061 26.207L147.621 33.3438L144.094 36.9531L143.232 34.1641L145.898 30.8691L150.082 26.207H154.061ZM150.793 41L145.994 34.0547L148.072 31.7441L154.607 41H150.793ZM164.492 38.0332V30.9785C164.492 30.4499 164.396 29.9941 164.205 29.6113C164.014 29.2285 163.722 28.9323 163.33 28.7227C162.947 28.513 162.464 28.4082 161.881 28.4082C161.343 28.4082 160.878 28.4993 160.486 28.6816C160.094 28.8639 159.789 29.11 159.57 29.4199C159.352 29.7298 159.242 30.0807 159.242 30.4727H155.961C155.961 29.8893 156.102 29.3242 156.385 28.7773C156.667 28.2305 157.077 27.7428 157.615 27.3145C158.153 26.8861 158.796 26.5488 159.543 26.3027C160.29 26.0566 161.129 25.9336 162.059 25.9336C163.171 25.9336 164.155 26.1204 165.012 26.4941C165.878 26.8678 166.557 27.4329 167.049 28.1895C167.55 28.9368 167.801 29.8757 167.801 31.0059V37.582C167.801 38.2565 167.846 38.8626 167.938 39.4004C168.038 39.929 168.179 40.3893 168.361 40.7812V41H164.984C164.829 40.6445 164.706 40.1934 164.615 39.6465C164.533 39.0905 164.492 38.5527 164.492 38.0332ZM164.971 32.0039L164.998 34.041H162.633C162.022 34.041 161.484 34.1003 161.02 34.2188C160.555 34.3281 160.167 34.4922 159.857 34.7109C159.548 34.9297 159.315 35.194 159.16 35.5039C159.005 35.8138 158.928 36.1647 158.928 36.5566C158.928 36.9486 159.019 37.3086 159.201 37.6367C159.383 37.9557 159.648 38.2064 159.994 38.3887C160.35 38.571 160.778 38.6621 161.279 38.6621C161.954 38.6621 162.542 38.5254 163.043 38.252C163.553 37.9694 163.954 37.6276 164.246 37.2266C164.538 36.8164 164.693 36.429 164.711 36.0645L165.777 37.5273C165.668 37.901 165.481 38.3021 165.217 38.7305C164.952 39.1589 164.606 39.569 164.178 39.9609C163.758 40.3438 163.253 40.6582 162.66 40.9043C162.077 41.1504 161.402 41.2734 160.637 41.2734C159.671 41.2734 158.809 41.082 158.053 40.6992C157.296 40.3073 156.704 39.7832 156.275 39.127C155.847 38.4616 155.633 37.7096 155.633 36.8711C155.633 36.0872 155.779 35.3945 156.07 34.793C156.371 34.1823 156.809 33.6719 157.383 33.2617C157.966 32.8516 158.677 32.5417 159.516 32.332C160.354 32.1133 161.311 32.0039 162.387 32.0039H164.971ZM174.514 29.3652V41H171.219V26.207H174.322L174.514 29.3652ZM173.926 33.0566L172.859 33.043C172.868 31.9948 173.014 31.0332 173.297 30.1582C173.589 29.2832 173.99 28.5312 174.5 27.9023C175.02 27.2734 175.639 26.7904 176.359 26.4531C177.079 26.1068 177.882 25.9336 178.766 25.9336C179.477 25.9336 180.119 26.0339 180.693 26.2344C181.277 26.4258 181.773 26.7402 182.184 27.1777C182.603 27.6152 182.922 28.1849 183.141 28.8867C183.359 29.5794 183.469 30.4316 183.469 31.4434V41H180.16V31.4297C180.16 30.7188 180.055 30.1582 179.846 29.748C179.645 29.3288 179.349 29.0326 178.957 28.8594C178.574 28.6771 178.096 28.5859 177.521 28.5859C176.956 28.5859 176.451 28.7044 176.004 28.9414C175.557 29.1784 175.179 29.502 174.869 29.9121C174.568 30.3223 174.336 30.7962 174.172 31.334C174.008 31.8717 173.926 32.446 173.926 33.0566ZM195.131 36.9941C195.131 36.666 195.049 36.3698 194.885 36.1055C194.721 35.832 194.406 35.5859 193.941 35.3672C193.486 35.1484 192.811 34.9479 191.918 34.7656C191.134 34.5924 190.414 34.3874 189.758 34.1504C189.111 33.9043 188.555 33.6081 188.09 33.2617C187.625 32.9154 187.265 32.5052 187.01 32.0312C186.755 31.5573 186.627 31.0104 186.627 30.3906C186.627 29.7891 186.759 29.2194 187.023 28.6816C187.288 28.1439 187.666 27.6699 188.158 27.2598C188.65 26.8496 189.247 26.526 189.949 26.2891C190.66 26.0521 191.453 25.9336 192.328 25.9336C193.568 25.9336 194.63 26.1432 195.514 26.5625C196.407 26.9727 197.09 27.5332 197.564 28.2441C198.038 28.946 198.275 29.7389 198.275 30.623H194.98C194.98 30.2311 194.88 29.8665 194.68 29.5293C194.488 29.1829 194.197 28.9049 193.805 28.6953C193.413 28.4766 192.921 28.3672 192.328 28.3672C191.763 28.3672 191.294 28.4583 190.92 28.6406C190.555 28.8138 190.282 29.0417 190.1 29.3242C189.926 29.6068 189.84 29.9167 189.84 30.2539C189.84 30.5 189.885 30.7233 189.977 30.9238C190.077 31.1152 190.241 31.293 190.469 31.457C190.697 31.612 191.007 31.7578 191.398 31.8945C191.799 32.0312 192.301 32.1634 192.902 32.291C194.033 32.528 195.003 32.8333 195.814 33.207C196.635 33.5716 197.264 34.0456 197.701 34.6289C198.139 35.2031 198.357 35.9323 198.357 36.8164C198.357 37.4727 198.216 38.0742 197.934 38.6211C197.66 39.1589 197.259 39.6283 196.73 40.0293C196.202 40.4212 195.568 40.7266 194.83 40.9453C194.101 41.1641 193.281 41.2734 192.369 41.2734C191.029 41.2734 189.895 41.0365 188.965 40.5625C188.035 40.0794 187.329 39.4642 186.846 38.7168C186.372 37.9603 186.135 37.1764 186.135 36.3652H189.32C189.357 36.9759 189.525 37.4635 189.826 37.8281C190.136 38.1836 190.519 38.4434 190.975 38.6074C191.439 38.7624 191.918 38.8398 192.41 38.8398C193.003 38.8398 193.499 38.7624 193.9 38.6074C194.301 38.4434 194.607 38.2246 194.816 37.9512C195.026 37.6686 195.131 37.3496 195.131 36.9941ZM204.77 26.207V41H201.461V26.207H204.77ZM201.242 22.3242C201.242 21.8229 201.406 21.4082 201.734 21.0801C202.072 20.7428 202.536 20.5742 203.129 20.5742C203.712 20.5742 204.173 20.7428 204.51 21.0801C204.847 21.4082 205.016 21.8229 205.016 22.3242C205.016 22.8164 204.847 23.2266 204.51 23.5547C204.173 23.8828 203.712 24.0469 203.129 24.0469C202.536 24.0469 202.072 23.8828 201.734 23.5547C201.406 23.2266 201.242 22.8164 201.242 22.3242Z" fill="white"/>
<defs>
<linearGradient id="paint0_linear_1_529" x1="0" y1="31" x2="231" y2="31" gradientUnits="userSpaceOnUse">
<stop stop-color="#54287F"/>
<stop offset="1" stop-color="#9748E5"/>
</linearGradient>
</defs>
</svg>
