<svg width="25" height="24" viewBox="0 0 25 24" fill="none" xmlns="http://www.w3.org/2000/svg">
<path d="M19.87 8.27494V8.77494C19.87 13.8099 16.05 19.5799 9.06 19.5799C6.99647 19.5844 4.97677 18.9847 3.25 17.8549C3.54989 17.8957 3.85239 17.914 4.155 17.9099C5.8655 17.9146 7.52791 17.3441 8.875 16.2899C8.08034 16.2782 7.30958 16.0163 6.67228 15.5415C6.03498 15.0667 5.56355 14.403 5.325 13.6449C5.56171 13.6951 5.80303 13.7203 6.045 13.7199C6.38288 13.72 6.71923 13.6746 7.045 13.5849C6.18429 13.4134 5.40996 12.948 4.8545 12.2685C4.29904 11.589 3.99698 10.7376 4 9.85994V9.80994C4.5266 10.1041 5.11698 10.2654 5.72 10.2799C4.9173 9.75173 4.34659 8.93693 4.12448 8.00205C3.90238 7.06716 4.04564 6.08275 4.525 5.24994C5.48013 6.42469 6.67179 7.38528 8.02252 8.06926C9.37325 8.75323 10.8528 9.14529 12.365 9.21994C12.2901 8.93616 12.2548 8.64339 12.26 8.34994C12.2318 7.5744 12.4434 6.80902 12.8659 6.15802C13.2883 5.50703 13.9011 5.00205 14.6209 4.71185C15.3407 4.42166 16.1324 4.36034 16.8882 4.53625C17.6441 4.71216 18.3273 5.11676 18.845 5.69494C19.6959 5.52323 20.5121 5.21059 21.26 4.76994C20.9764 5.66563 20.373 6.4256 19.565 6.90494C20.3198 6.80094 21.0557 6.58876 21.75 6.27494C21.2468 7.04776 20.6102 7.72497 19.87 8.27494V8.27494Z" stroke="white" stroke-width="1.5" stroke-linecap="round" stroke-linejoin="round"/>
</svg>
